<?xml version="1.0" encoding="UTF-8" standalone="no"?>
<!DOCTYPE svg PUBLIC "-//W3C//DTD SVG 1.1//EN"
 "http://www.w3.org/Graphics/SVG/1.1/DTD/svg11.dtd">
<!-- Generated by graphviz version 2.43.0 (0)
 -->
<!-- Title: trp Pages: 1 -->
<svg width="792pt" height="44pt"
 viewBox="0.00 0.00 792.00 44.00" xmlns="http://www.w3.org/2000/svg" xmlns:xlink="http://www.w3.org/1999/xlink">
<g id="graph0" class="graph" transform="scale(1 1) rotate(0) translate(4 40)">
<title>trp</title>
<polygon fill="white" stroke="transparent" points="-4,4 -4,-40 788,-40 788,4 -4,4"/>
<!-- arrangement/1 -->
<g id="node1" class="node">
<title>arrangement/1</title>
<path fill="#b3e2cd" stroke="black" d="M112,-36C112,-36 12,-36 12,-36 6,-36 0,-30 0,-24 0,-24 0,-12 0,-12 0,-6 6,0 12,0 12,0 112,0 112,0 118,0 124,-6 124,-12 124,-12 124,-24 124,-24 124,-30 118,-36 112,-36"/>
<text text-anchor="middle" x="62" y="-14.3" font-family="Courier,monospace" font-size="14.00">arrangement/1</text>
</g>
<!-- arrangement/2 -->
<g id="node2" class="node">
<title>arrangement/2</title>
<path fill="#b3e2cd" stroke="black" d="M332,-36C332,-36 232,-36 232,-36 226,-36 220,-30 220,-24 220,-24 220,-12 220,-12 220,-6 226,0 232,0 232,0 332,0 332,0 338,0 344,-6 344,-12 344,-12 344,-24 344,-24 344,-30 338,-36 332,-36"/>
<text text-anchor="middle" x="282" y="-14.3" font-family="Courier,monospace" font-size="14.00">arrangement/2</text>
</g>
<!-- arrangement/1&#45;&gt;arrangement/2 -->
<g id="edge1" class="edge">
<title>arrangement/1&#45;&gt;arrangement/2</title>
<path fill="none" stroke="black" d="M124.02,-18C150.71,-18 182.21,-18 209.96,-18"/>
<polygon fill="black" stroke="black" points="210,-21.5 220,-18 210,-14.5 210,-21.5"/>
<text text-anchor="middle" x="172" y="-21.8" font-family="Times,serif" font-size="14.00">&lt;trp/1&gt;</text>
</g>
<!-- arrangement/3 -->
<g id="node3" class="node">
<title>arrangement/3</title>
<path fill="#b3e2cd" stroke="black" d="M552,-36C552,-36 452,-36 452,-36 446,-36 440,-30 440,-24 440,-24 440,-12 440,-12 440,-6 446,0 452,0 452,0 552,0 552,0 558,0 564,-6 564,-12 564,-12 564,-24 564,-24 564,-30 558,-36 552,-36"/>
<text text-anchor="middle" x="502" y="-14.3" font-family="Courier,monospace" font-size="14.00">arrangement/3</text>
</g>
<!-- arrangement/2&#45;&gt;arrangement/3 -->
<g id="edge2" class="edge">
<title>arrangement/2&#45;&gt;arrangement/3</title>
<path fill="none" stroke="black" d="M344.02,-18C370.71,-18 402.21,-18 429.96,-18"/>
<polygon fill="black" stroke="black" points="430,-21.5 440,-18 430,-14.5 430,-21.5"/>
<text text-anchor="middle" x="392" y="-21.8" font-family="Times,serif" font-size="14.00">&lt;trp/2&gt;</text>
</g>
<!-- arrangement/4 -->
<g id="node4" class="node">
<title>arrangement/4</title>
<path fill="#b3e2cd" stroke="black" d="M772,-36C772,-36 672,-36 672,-36 666,-36 660,-30 660,-24 660,-24 660,-12 660,-12 660,-6 666,0 672,0 672,0 772,0 772,0 778,0 784,-6 784,-12 784,-12 784,-24 784,-24 784,-30 778,-36 772,-36"/>
<text text-anchor="middle" x="722" y="-14.3" font-family="Courier,monospace" font-size="14.00">arrangement/4</text>
</g>
<!-- arrangement/3&#45;&gt;arrangement/4 -->
<g id="edge3" class="edge">
<title>arrangement/3&#45;&gt;arrangement/4</title>
<path fill="none" stroke="black" d="M564.02,-18C590.71,-18 622.21,-18 649.96,-18"/>
<polygon fill="black" stroke="black" points="650,-21.5 660,-18 650,-14.5 650,-21.5"/>
<text text-anchor="middle" x="612" y="-21.8" font-family="Times,serif" font-size="14.00">&lt;trp/3&gt;</text>
</g>
</g>
</svg>
