<?xml version="1.0" encoding="UTF-8" standalone="no"?>
<!DOCTYPE svg PUBLIC "-//W3C//DTD SVG 1.1//EN"
 "http://www.w3.org/Graphics/SVG/1.1/DTD/svg11.dtd">
<!-- Generated by graphviz version 2.43.0 (0)
 -->
<!-- Title: subclass_vocab_graph Pages: 1 -->
<svg width="1093pt" height="389pt"
 viewBox="0.00 0.00 1093.00 389.00" xmlns="http://www.w3.org/2000/svg" xmlns:xlink="http://www.w3.org/1999/xlink">
<g id="graph0" class="graph" transform="scale(1 1) rotate(0) translate(4 385)">
<title>subclass_vocab_graph</title>
<polygon fill="white" stroke="transparent" points="-4,4 -4,-385 1089,-385 1089,4 -4,4"/>
<text text-anchor="middle" x="542.5" y="-367.4" font-family="Courier,monospace" font-size="12.00">Subclass Vocab Graph</text>
<!-- ArtifactComposition -->
<g id="node1" class="node">
<title>ArtifactComposition</title>
<path fill="#b3e2cd" stroke="black" d="M206.5,-90C206.5,-90 57.5,-90 57.5,-90 51.5,-90 45.5,-84 45.5,-78 45.5,-78 45.5,-66 45.5,-66 45.5,-60 51.5,-54 57.5,-54 57.5,-54 206.5,-54 206.5,-54 212.5,-54 218.5,-60 218.5,-66 218.5,-66 218.5,-78 218.5,-78 218.5,-84 212.5,-90 206.5,-90"/>
<text text-anchor="middle" x="132" y="-68.3" font-family="Courier,monospace" font-size="14.00">ArtifactComposition</text>
</g>
<!-- ArtifactCollection -->
<g id="node2" class="node">
<title>ArtifactCollection</title>
<path fill="#b3e2cd" stroke="black" d="M490,-63C490,-63 349,-63 349,-63 343,-63 337,-57 337,-51 337,-51 337,-39 337,-39 337,-33 343,-27 349,-27 349,-27 490,-27 490,-27 496,-27 502,-33 502,-39 502,-39 502,-51 502,-51 502,-57 496,-63 490,-63"/>
<text text-anchor="middle" x="419.5" y="-41.3" font-family="Courier,monospace" font-size="14.00">ArtifactCollection</text>
</g>
<!-- ArtifactComposition&#45;&gt;ArtifactCollection -->
<g id="edge1" class="edge">
<title>ArtifactComposition&#45;&gt;ArtifactCollection</title>
<path fill="none" stroke="black" d="M218.66,-63.9C252.74,-60.68 292.03,-56.96 326.7,-53.68"/>
<polygon fill="black" stroke="black" points="327.19,-57.15 336.82,-52.72 326.53,-50.18 327.19,-57.15"/>
</g>
<!-- ArtifactLocus -->
<g id="node3" class="node">
<title>ArtifactLocus</title>
<path fill="#b3e2cd" stroke="black" d="M182,-36C182,-36 82,-36 82,-36 76,-36 70,-30 70,-24 70,-24 70,-12 70,-12 70,-6 76,0 82,0 82,0 182,0 182,0 188,0 194,-6 194,-12 194,-12 194,-24 194,-24 194,-30 188,-36 182,-36"/>
<text text-anchor="middle" x="132" y="-14.3" font-family="Courier,monospace" font-size="14.00">ArtifactLocus</text>
</g>
<!-- ArtifactLocus&#45;&gt;ArtifactCollection -->
<g id="edge2" class="edge">
<title>ArtifactLocus&#45;&gt;ArtifactCollection</title>
<path fill="none" stroke="black" d="M194.25,-23.79C232.86,-27.44 283.43,-32.23 326.77,-36.33"/>
<polygon fill="black" stroke="black" points="326.48,-39.81 336.76,-37.27 327.14,-32.84 326.48,-39.81"/>
</g>
<!-- TROAttribute -->
<g id="node4" class="node">
<title>TROAttribute</title>
<path fill="#b3e2cd" stroke="black" d="M921,-117C921,-117 829,-117 829,-117 823,-117 817,-111 817,-105 817,-105 817,-93 817,-93 817,-87 823,-81 829,-81 829,-81 921,-81 921,-81 927,-81 933,-87 933,-93 933,-93 933,-105 933,-105 933,-111 927,-117 921,-117"/>
<text text-anchor="middle" x="875" y="-95.3" font-family="Courier,monospace" font-size="14.00">TROAttribute</text>
</g>
<!-- TREAttribute -->
<g id="node5" class="node">
<title>TREAttribute</title>
<path fill="#b3e2cd" stroke="black" d="M1073,-171C1073,-171 981,-171 981,-171 975,-171 969,-165 969,-159 969,-159 969,-147 969,-147 969,-141 975,-135 981,-135 981,-135 1073,-135 1073,-135 1079,-135 1085,-141 1085,-147 1085,-147 1085,-159 1085,-159 1085,-165 1079,-171 1073,-171"/>
<text text-anchor="middle" x="1027" y="-149.3" font-family="Courier,monospace" font-size="14.00">TREAttribute</text>
</g>
<!-- TROAttribute&#45;&gt;TREAttribute -->
<g id="edge3" class="edge">
<title>TROAttribute&#45;&gt;TREAttribute</title>
<path fill="none" stroke="black" d="M926.37,-117.13C939.17,-121.74 953.06,-126.74 966.28,-131.5"/>
<polygon fill="black" stroke="black" points="965.17,-134.82 975.77,-134.92 967.54,-128.24 965.17,-134.82"/>
</g>
<!-- TRPAttribute -->
<g id="node6" class="node">
<title>TRPAttribute</title>
<path fill="#b3e2cd" stroke="black" d="M921,-225C921,-225 829,-225 829,-225 823,-225 817,-219 817,-213 817,-213 817,-201 817,-201 817,-195 823,-189 829,-189 829,-189 921,-189 921,-189 927,-189 933,-195 933,-201 933,-201 933,-213 933,-213 933,-219 927,-225 921,-225"/>
<text text-anchor="middle" x="875" y="-203.3" font-family="Courier,monospace" font-size="14.00">TRPAttribute</text>
</g>
<!-- TRPAttribute&#45;&gt;TREAttribute -->
<g id="edge4" class="edge">
<title>TRPAttribute&#45;&gt;TREAttribute</title>
<path fill="none" stroke="black" d="M926.37,-188.87C939.17,-184.26 953.06,-179.26 966.28,-174.5"/>
<polygon fill="black" stroke="black" points="967.54,-177.76 975.77,-171.08 965.17,-171.18 967.54,-177.76"/>
</g>
<!-- TRSAttribute -->
<g id="node7" class="node">
<title>TRSAttribute</title>
<path fill="#b3e2cd" stroke="black" d="M921,-171C921,-171 829,-171 829,-171 823,-171 817,-165 817,-159 817,-159 817,-147 817,-147 817,-141 823,-135 829,-135 829,-135 921,-135 921,-135 927,-135 933,-141 933,-147 933,-147 933,-159 933,-159 933,-165 927,-171 921,-171"/>
<text text-anchor="middle" x="875" y="-149.3" font-family="Courier,monospace" font-size="14.00">TRSAttribute</text>
</g>
<!-- TRSAttribute&#45;&gt;TREAttribute -->
<g id="edge5" class="edge">
<title>TRSAttribute&#45;&gt;TREAttribute</title>
<path fill="none" stroke="black" d="M933.14,-153C941.38,-153 949.92,-153 958.34,-153"/>
<polygon fill="black" stroke="black" points="958.53,-156.5 968.53,-153 958.53,-149.5 958.53,-156.5"/>
</g>
<!-- IncludesAllInputData -->
<g id="node8" class="node">
<title>IncludesAllInputData</title>
<path fill="#b3e2cd" stroke="black" d="M757,-117C757,-117 599,-117 599,-117 593,-117 587,-111 587,-105 587,-105 587,-93 587,-93 587,-87 593,-81 599,-81 599,-81 757,-81 757,-81 763,-81 769,-87 769,-93 769,-93 769,-105 769,-105 769,-111 763,-117 757,-117"/>
<text text-anchor="middle" x="678" y="-95.3" font-family="Courier,monospace" font-size="14.00">IncludesAllInputData</text>
</g>
<!-- IncludesAllInputData&#45;&gt;TROAttribute -->
<g id="edge6" class="edge">
<title>IncludesAllInputData&#45;&gt;TROAttribute</title>
<path fill="none" stroke="black" d="M769.08,-99C781.79,-99 794.66,-99 806.84,-99"/>
<polygon fill="black" stroke="black" points="806.88,-102.5 816.88,-99 806.88,-95.5 806.88,-102.5"/>
</g>
<!-- InternetAccessRecording -->
<g id="node9" class="node">
<title>InternetAccessRecording</title>
<path fill="#b3e2cd" stroke="black" d="M769,-279C769,-279 587,-279 587,-279 581,-279 575,-273 575,-267 575,-267 575,-255 575,-255 575,-249 581,-243 587,-243 587,-243 769,-243 769,-243 775,-243 781,-249 781,-255 781,-255 781,-267 781,-267 781,-273 775,-279 769,-279"/>
<text text-anchor="middle" x="678" y="-257.3" font-family="Courier,monospace" font-size="14.00">InternetAccessRecording</text>
</g>
<!-- InternetAccessRecording&#45;&gt;TRPAttribute -->
<g id="edge7" class="edge">
<title>InternetAccessRecording&#45;&gt;TRPAttribute</title>
<path fill="none" stroke="black" d="M747.92,-243C758.99,-240.03 770.32,-236.96 781,-234 789.36,-231.68 798.12,-229.2 806.79,-226.72"/>
<polygon fill="black" stroke="black" points="807.87,-230.05 816.51,-223.92 805.94,-223.32 807.87,-230.05"/>
</g>
<!-- InternetIsolation -->
<g id="node10" class="node">
<title>InternetIsolation</title>
<path fill="#b3e2cd" stroke="black" d="M744.5,-225C744.5,-225 611.5,-225 611.5,-225 605.5,-225 599.5,-219 599.5,-213 599.5,-213 599.5,-201 599.5,-201 599.5,-195 605.5,-189 611.5,-189 611.5,-189 744.5,-189 744.5,-189 750.5,-189 756.5,-195 756.5,-201 756.5,-201 756.5,-213 756.5,-213 756.5,-219 750.5,-225 744.5,-225"/>
<text text-anchor="middle" x="678" y="-203.3" font-family="Courier,monospace" font-size="14.00">InternetIsolation</text>
</g>
<!-- InternetIsolation&#45;&gt;TRPAttribute -->
<g id="edge8" class="edge">
<title>InternetIsolation&#45;&gt;TRPAttribute</title>
<path fill="none" stroke="black" d="M756.63,-207C773.1,-207 790.35,-207 806.41,-207"/>
<polygon fill="black" stroke="black" points="806.77,-210.5 816.77,-207 806.77,-203.5 806.77,-210.5"/>
</g>
<!-- TRSCapability -->
<g id="node11" class="node">
<title>TRSCapability</title>
<path fill="#b3e2cd" stroke="black" d="M728,-171C728,-171 628,-171 628,-171 622,-171 616,-165 616,-159 616,-159 616,-147 616,-147 616,-141 622,-135 628,-135 628,-135 728,-135 728,-135 734,-135 740,-141 740,-147 740,-147 740,-159 740,-159 740,-165 734,-171 728,-171"/>
<text text-anchor="middle" x="678" y="-149.3" font-family="Courier,monospace" font-size="14.00">TRSCapability</text>
</g>
<!-- TRSCapability&#45;&gt;TRSAttribute -->
<g id="edge9" class="edge">
<title>TRSCapability&#45;&gt;TRSAttribute</title>
<path fill="none" stroke="black" d="M740.16,-153C761.28,-153 785.05,-153 806.64,-153"/>
<polygon fill="black" stroke="black" points="806.71,-156.5 816.71,-153 806.71,-149.5 806.71,-156.5"/>
</g>
<!-- CanProvideInternetIsolation -->
<g id="node12" class="node">
<title>CanProvideInternetIsolation</title>
<path fill="#b3e2cd" stroke="black" d="M527,-198C527,-198 312,-198 312,-198 306,-198 300,-192 300,-186 300,-186 300,-174 300,-174 300,-168 306,-162 312,-162 312,-162 527,-162 527,-162 533,-162 539,-168 539,-174 539,-174 539,-186 539,-186 539,-192 533,-198 527,-198"/>
<text text-anchor="middle" x="419.5" y="-176.3" font-family="Courier,monospace" font-size="14.00">CanProvideInternetIsolation</text>
</g>
<!-- CanProvideInternetIsolation&#45;&gt;TRSCapability -->
<g id="edge10" class="edge">
<title>CanProvideInternetIsolation&#45;&gt;TRSCapability</title>
<path fill="none" stroke="black" d="M539.36,-167.49C562.01,-165.1 585.05,-162.68 605.63,-160.51"/>
<polygon fill="black" stroke="black" points="606.26,-163.97 615.84,-159.44 605.53,-157 606.26,-163.97"/>
</g>
<!-- TRSPolicy -->
<g id="node13" class="node">
<title>TRSPolicy</title>
<path fill="#b3e2cd" stroke="black" d="M453,-144C453,-144 386,-144 386,-144 380,-144 374,-138 374,-132 374,-132 374,-120 374,-120 374,-114 380,-108 386,-108 386,-108 453,-108 453,-108 459,-108 465,-114 465,-120 465,-120 465,-132 465,-132 465,-138 459,-144 453,-144"/>
<text text-anchor="middle" x="419.5" y="-122.3" font-family="Courier,monospace" font-size="14.00">TRSPolicy</text>
</g>
<!-- TRSPolicy&#45;&gt;TRSCapability -->
<g id="edge11" class="edge">
<title>TRSPolicy&#45;&gt;TRSCapability</title>
<path fill="none" stroke="black" d="M465.18,-130.7C503.88,-134.78 560.55,-140.74 605.55,-145.48"/>
<polygon fill="black" stroke="black" points="605.23,-148.96 615.54,-146.53 605.96,-142 605.23,-148.96"/>
</g>
<!-- EnforcesInternetIsolation -->
<g id="node14" class="node">
<title>EnforcesInternetIsolation</title>
<path fill="#b3e2cd" stroke="black" d="M231.5,-144C231.5,-144 32.5,-144 32.5,-144 26.5,-144 20.5,-138 20.5,-132 20.5,-132 20.5,-120 20.5,-120 20.5,-114 26.5,-108 32.5,-108 32.5,-108 231.5,-108 231.5,-108 237.5,-108 243.5,-114 243.5,-120 243.5,-120 243.5,-132 243.5,-132 243.5,-138 237.5,-144 231.5,-144"/>
<text text-anchor="middle" x="132" y="-122.3" font-family="Courier,monospace" font-size="14.00">EnforcesInternetIsolation</text>
</g>
<!-- EnforcesInternetIsolation&#45;&gt;TRSPolicy -->
<g id="edge12" class="edge">
<title>EnforcesInternetIsolation&#45;&gt;TRSPolicy</title>
<path fill="none" stroke="black" d="M243.79,-126C284.84,-126 329.61,-126 363.55,-126"/>
<polygon fill="black" stroke="black" points="363.72,-129.5 373.72,-126 363.72,-122.5 363.72,-129.5"/>
</g>
<!-- TimeStampingAuthority -->
<g id="node15" class="node">
<title>TimeStampingAuthority</title>
<path fill="#b3e2cd" stroke="black" d="M215,-360C215,-360 49,-360 49,-360 43,-360 37,-354 37,-348 37,-348 37,-336 37,-336 37,-330 43,-324 49,-324 49,-324 215,-324 215,-324 221,-324 227,-330 227,-336 227,-336 227,-348 227,-348 227,-354 221,-360 215,-360"/>
<text text-anchor="middle" x="132" y="-338.3" font-family="Courier,monospace" font-size="14.00">TimeStampingAuthority</text>
</g>
<!-- TransparentResearchElement -->
<g id="node16" class="node">
<title>TransparentResearchElement</title>
<path fill="#b3e2cd" stroke="black" d="M523,-252C523,-252 316,-252 316,-252 310,-252 304,-246 304,-240 304,-240 304,-228 304,-228 304,-222 310,-216 316,-216 316,-216 523,-216 523,-216 529,-216 535,-222 535,-228 535,-228 535,-240 535,-240 535,-246 529,-252 523,-252"/>
<text text-anchor="middle" x="419.5" y="-230.3" font-family="Courier,monospace" font-size="14.00">TransparentResearchElement</text>
</g>
<!-- TimeStampingAuthority&#45;&gt;TransparentResearchElement -->
<g id="edge13" class="edge">
<title>TimeStampingAuthority&#45;&gt;TransparentResearchElement</title>
<path fill="none" stroke="black" d="M227.27,-325.89C239.77,-322.79 252.3,-319.18 264,-315 306.05,-299.98 350.92,-275.39 381.4,-257.24"/>
<polygon fill="black" stroke="black" points="383.23,-260.22 389.99,-252.07 379.62,-254.23 383.23,-260.22"/>
</g>
<!-- TransparentResearchObject -->
<g id="node17" class="node">
<title>TransparentResearchObject</title>
<path fill="#b3e2cd" stroke="black" d="M231.5,-306C231.5,-306 32.5,-306 32.5,-306 26.5,-306 20.5,-300 20.5,-294 20.5,-294 20.5,-282 20.5,-282 20.5,-276 26.5,-270 32.5,-270 32.5,-270 231.5,-270 231.5,-270 237.5,-270 243.5,-276 243.5,-282 243.5,-282 243.5,-294 243.5,-294 243.5,-300 237.5,-306 231.5,-306"/>
<text text-anchor="middle" x="132" y="-284.3" font-family="Courier,monospace" font-size="14.00">TransparentResearchObject</text>
</g>
<!-- TransparentResearchObject&#45;&gt;TransparentResearchElement -->
<g id="edge14" class="edge">
<title>TransparentResearchObject&#45;&gt;TransparentResearchElement</title>
<path fill="none" stroke="black" d="M228.46,-269.94C255.61,-264.81 285.32,-259.19 313.02,-253.95"/>
<polygon fill="black" stroke="black" points="313.95,-257.34 323.13,-252.04 312.65,-250.46 313.95,-257.34"/>
</g>
<!-- TransparentResearchPerformance -->
<g id="node18" class="node">
<title>TransparentResearchPerformance</title>
<path fill="#b3e2cd" stroke="black" d="M252,-252C252,-252 12,-252 12,-252 6,-252 0,-246 0,-240 0,-240 0,-228 0,-228 0,-222 6,-216 12,-216 12,-216 252,-216 252,-216 258,-216 264,-222 264,-228 264,-228 264,-240 264,-240 264,-246 258,-252 252,-252"/>
<text text-anchor="middle" x="132" y="-230.3" font-family="Courier,monospace" font-size="14.00">TransparentResearchPerformance</text>
</g>
<!-- TransparentResearchPerformance&#45;&gt;TransparentResearchElement -->
<g id="edge15" class="edge">
<title>TransparentResearchPerformance&#45;&gt;TransparentResearchElement</title>
<path fill="none" stroke="black" d="M264.05,-234C273.84,-234 283.71,-234 293.46,-234"/>
<polygon fill="black" stroke="black" points="293.58,-237.5 303.58,-234 293.58,-230.5 293.58,-237.5"/>
</g>
<!-- TransparentResearchSystem -->
<g id="node19" class="node">
<title>TransparentResearchSystem</title>
<path fill="#b3e2cd" stroke="black" d="M231.5,-198C231.5,-198 32.5,-198 32.5,-198 26.5,-198 20.5,-192 20.5,-186 20.5,-186 20.5,-174 20.5,-174 20.5,-168 26.5,-162 32.5,-162 32.5,-162 231.5,-162 231.5,-162 237.5,-162 243.5,-168 243.5,-174 243.5,-174 243.5,-186 243.5,-186 243.5,-192 237.5,-198 231.5,-198"/>
<text text-anchor="middle" x="132" y="-176.3" font-family="Courier,monospace" font-size="14.00">TransparentResearchSystem</text>
</g>
<!-- TransparentResearchSystem&#45;&gt;TransparentResearchElement -->
<g id="edge16" class="edge">
<title>TransparentResearchSystem&#45;&gt;TransparentResearchElement</title>
<path fill="none" stroke="black" d="M228.46,-198.06C255.61,-203.19 285.32,-208.81 313.02,-214.05"/>
<polygon fill="black" stroke="black" points="312.65,-217.54 323.13,-215.96 313.95,-210.66 312.65,-217.54"/>
</g>
</g>
</svg>
